<mxfile host="app.diagrams.net" modified="2021-05-05T08:09:11.552Z" agent="5.0 (Windows NT 10.0; Win64; x64) AppleWebKit/537.36 (KHTML, like Gecko) Chrome/90.0.4430.93 Safari/537.36" etag="Nnw_Xyr69uLir5zkfL-0" version="14.6.10" type="github">
  <diagram name="Page-1" id="2a216829-ef6e-dabb-86c1-c78162f3ba2b">
    <mxGraphModel dx="1255" dy="804" grid="1" gridSize="10" guides="1" tooltips="1" connect="1" arrows="1" fold="1" page="1" pageScale="1" pageWidth="850" pageHeight="1100" math="0" shadow="0">
      <root>
        <mxCell id="0" />
        <mxCell id="1" parent="0" />
        <mxCell id="8sKl_iNlSNDo3tOQ9S4O-7" value="" style="line;strokeWidth=2;html=1;rounded=0;sketch=0;fontColor=#1A1A1A;fillColor=#FAD9D5;strokeColor=#D0CEE2;" vertex="1" parent="1">
          <mxGeometry x="80" y="450" width="1060" height="10" as="geometry" />
        </mxCell>
        <mxCell id="8sKl_iNlSNDo3tOQ9S4O-8" value="" style="line;strokeWidth=2;html=1;rounded=0;sketch=0;fontColor=#1A1A1A;fillColor=#FAD9D5;strokeColor=#D0CEE2;" vertex="1" parent="1">
          <mxGeometry x="90" y="240" width="1040" height="10" as="geometry" />
        </mxCell>
        <mxCell id="8sKl_iNlSNDo3tOQ9S4O-11" value="Клиент" style="text;html=1;strokeColor=none;fillColor=none;align=center;verticalAlign=middle;whiteSpace=wrap;rounded=0;sketch=0;fontColor=#1A1A1A;" vertex="1" parent="1">
          <mxGeometry x="130" y="130" width="80" height="40" as="geometry" />
        </mxCell>
        <mxCell id="8sKl_iNlSNDo3tOQ9S4O-14" value="Менеджер" style="text;html=1;strokeColor=none;fillColor=none;align=center;verticalAlign=middle;whiteSpace=wrap;rounded=0;sketch=0;fontColor=#1A1A1A;" vertex="1" parent="1">
          <mxGeometry x="120" y="330" width="90" height="40" as="geometry" />
        </mxCell>
        <mxCell id="8sKl_iNlSNDo3tOQ9S4O-15" value="Производство" style="text;html=1;strokeColor=none;fillColor=none;align=center;verticalAlign=middle;whiteSpace=wrap;rounded=0;sketch=0;fontColor=#1A1A1A;" vertex="1" parent="1">
          <mxGeometry x="130" y="590" width="40" height="20" as="geometry" />
        </mxCell>
        <mxCell id="8sKl_iNlSNDo3tOQ9S4O-19" value="" style="edgeStyle=orthogonalEdgeStyle;curved=0;rounded=1;sketch=0;orthogonalLoop=1;jettySize=auto;html=1;fontColor=#1A1A1A;strokeColor=#09555B;" edge="1" parent="1" source="8sKl_iNlSNDo3tOQ9S4O-17" target="8sKl_iNlSNDo3tOQ9S4O-18">
          <mxGeometry relative="1" as="geometry" />
        </mxCell>
        <mxCell id="8sKl_iNlSNDo3tOQ9S4O-17" value="Претензия" style="whiteSpace=wrap;html=1;rounded=0;sketch=0;fontColor=#1A1A1A;strokeColor=#D0CEE2;fillColor=#FAD9D5;strokeWidth=2;shadow=1;" vertex="1" parent="1">
          <mxGeometry x="240" y="120" width="120" height="60" as="geometry" />
        </mxCell>
        <mxCell id="8sKl_iNlSNDo3tOQ9S4O-21" value="" style="edgeStyle=orthogonalEdgeStyle;curved=0;rounded=1;sketch=0;orthogonalLoop=1;jettySize=auto;html=1;fontColor=#1A1A1A;strokeColor=#09555B;" edge="1" parent="1" source="8sKl_iNlSNDo3tOQ9S4O-18" target="8sKl_iNlSNDo3tOQ9S4O-20">
          <mxGeometry relative="1" as="geometry" />
        </mxCell>
        <mxCell id="8sKl_iNlSNDo3tOQ9S4O-18" value="Получение&lt;br&gt;претензии" style="whiteSpace=wrap;html=1;rounded=0;sketch=0;fontColor=#1A1A1A;strokeColor=#D0CEE2;fillColor=#FAD9D5;strokeWidth=2;shadow=1;" vertex="1" parent="1">
          <mxGeometry x="240" y="300" width="120" height="60" as="geometry" />
        </mxCell>
        <mxCell id="8sKl_iNlSNDo3tOQ9S4O-23" value="" style="edgeStyle=orthogonalEdgeStyle;curved=0;rounded=1;sketch=0;orthogonalLoop=1;jettySize=auto;html=1;fontColor=#1A1A1A;strokeColor=#09555B;" edge="1" parent="1" source="8sKl_iNlSNDo3tOQ9S4O-20" target="8sKl_iNlSNDo3tOQ9S4O-22">
          <mxGeometry relative="1" as="geometry" />
        </mxCell>
        <mxCell id="8sKl_iNlSNDo3tOQ9S4O-20" value="Запрос&amp;nbsp;&lt;br&gt;причины" style="whiteSpace=wrap;html=1;rounded=0;sketch=0;fontColor=#1A1A1A;strokeColor=#D0CEE2;fillColor=#FAD9D5;strokeWidth=2;shadow=1;" vertex="1" parent="1">
          <mxGeometry x="240" y="570" width="120" height="60" as="geometry" />
        </mxCell>
        <mxCell id="8sKl_iNlSNDo3tOQ9S4O-35" value="" style="edgeStyle=orthogonalEdgeStyle;curved=0;rounded=1;sketch=0;orthogonalLoop=1;jettySize=auto;html=1;fontColor=#1A1A1A;strokeColor=#09555B;entryX=0.5;entryY=1;entryDx=0;entryDy=0;" edge="1" parent="1" source="8sKl_iNlSNDo3tOQ9S4O-22" target="8sKl_iNlSNDo3tOQ9S4O-30">
          <mxGeometry relative="1" as="geometry" />
        </mxCell>
        <mxCell id="8sKl_iNlSNDo3tOQ9S4O-22" value="Подготовка&amp;nbsp;&lt;br&gt;ответа" style="whiteSpace=wrap;html=1;rounded=0;sketch=0;fontColor=#1A1A1A;strokeColor=#D0CEE2;fillColor=#FAD9D5;strokeWidth=2;shadow=1;" vertex="1" parent="1">
          <mxGeometry x="440" y="570" width="120" height="60" as="geometry" />
        </mxCell>
        <mxCell id="8sKl_iNlSNDo3tOQ9S4O-37" style="edgeStyle=orthogonalEdgeStyle;curved=0;rounded=1;sketch=0;orthogonalLoop=1;jettySize=auto;html=1;entryX=0;entryY=0.5;entryDx=0;entryDy=0;fontColor=#1A1A1A;strokeColor=#09555B;" edge="1" parent="1" source="8sKl_iNlSNDo3tOQ9S4O-30" target="8sKl_iNlSNDo3tOQ9S4O-36">
          <mxGeometry relative="1" as="geometry" />
        </mxCell>
        <mxCell id="8sKl_iNlSNDo3tOQ9S4O-30" value="Получение&lt;br&gt;ответа" style="whiteSpace=wrap;html=1;rounded=0;sketch=0;fontColor=#1A1A1A;strokeColor=#D0CEE2;fillColor=#FAD9D5;strokeWidth=2;shadow=1;" vertex="1" parent="1">
          <mxGeometry x="440" y="300" width="120" height="60" as="geometry" />
        </mxCell>
        <mxCell id="8sKl_iNlSNDo3tOQ9S4O-39" value="" style="edgeStyle=orthogonalEdgeStyle;curved=0;rounded=1;sketch=0;orthogonalLoop=1;jettySize=auto;html=1;fontColor=#1A1A1A;strokeColor=#09555B;" edge="1" parent="1" source="8sKl_iNlSNDo3tOQ9S4O-36" target="8sKl_iNlSNDo3tOQ9S4O-38">
          <mxGeometry relative="1" as="geometry" />
        </mxCell>
        <mxCell id="8sKl_iNlSNDo3tOQ9S4O-41" value="" style="edgeStyle=orthogonalEdgeStyle;curved=0;rounded=1;sketch=0;orthogonalLoop=1;jettySize=auto;html=1;fontColor=#1A1A1A;strokeColor=#09555B;" edge="1" parent="1" source="8sKl_iNlSNDo3tOQ9S4O-36" target="8sKl_iNlSNDo3tOQ9S4O-40">
          <mxGeometry relative="1" as="geometry" />
        </mxCell>
        <mxCell id="8sKl_iNlSNDo3tOQ9S4O-36" value="Удовлетворить ?" style="rhombus;whiteSpace=wrap;html=1;rounded=0;sketch=0;fontColor=#1A1A1A;strokeColor=#D0CEE2;fillColor=#FAD9D5;strokeWidth=2;shadow=1;" vertex="1" parent="1">
          <mxGeometry x="650" y="280" width="110" height="100" as="geometry" />
        </mxCell>
        <mxCell id="8sKl_iNlSNDo3tOQ9S4O-38" value="Возврат денег или обмен ?" style="rounded=0;whiteSpace=wrap;html=1;sketch=0;fontColor=#1A1A1A;strokeColor=#D0CEE2;fillColor=#FAD9D5;strokeWidth=2;shadow=1;" vertex="1" parent="1">
          <mxGeometry x="650" y="120" width="120" height="60" as="geometry" />
        </mxCell>
        <mxCell id="8sKl_iNlSNDo3tOQ9S4O-44" style="edgeStyle=orthogonalEdgeStyle;curved=0;rounded=1;sketch=0;orthogonalLoop=1;jettySize=auto;html=1;entryX=0.5;entryY=0;entryDx=0;entryDy=0;fontColor=#1A1A1A;strokeColor=#09555B;" edge="1" parent="1" source="8sKl_iNlSNDo3tOQ9S4O-40" target="8sKl_iNlSNDo3tOQ9S4O-17">
          <mxGeometry relative="1" as="geometry">
            <Array as="points">
              <mxPoint x="880" y="100" />
              <mxPoint x="300" y="100" />
            </Array>
          </mxGeometry>
        </mxCell>
        <mxCell id="8sKl_iNlSNDo3tOQ9S4O-40" value="Получение &lt;br&gt;отказа" style="whiteSpace=wrap;html=1;rounded=0;fontColor=#1A1A1A;strokeColor=#D0CEE2;fillColor=#FAD9D5;sketch=0;strokeWidth=2;shadow=1;" vertex="1" parent="1">
          <mxGeometry x="820" y="120" width="120" height="60" as="geometry" />
        </mxCell>
        <mxCell id="8sKl_iNlSNDo3tOQ9S4O-42" value="Да" style="text;html=1;align=center;verticalAlign=middle;resizable=0;points=[];autosize=1;strokeColor=none;fontColor=#1A1A1A;" vertex="1" parent="1">
          <mxGeometry x="715" y="220" width="30" height="20" as="geometry" />
        </mxCell>
        <mxCell id="8sKl_iNlSNDo3tOQ9S4O-43" value="нет" style="text;html=1;align=center;verticalAlign=middle;resizable=0;points=[];autosize=1;strokeColor=none;fontColor=#1A1A1A;" vertex="1" parent="1">
          <mxGeometry x="815" y="310" width="30" height="20" as="geometry" />
        </mxCell>
        <mxCell id="8sKl_iNlSNDo3tOQ9S4O-45" value="1" style="ellipse;whiteSpace=wrap;html=1;aspect=fixed;rounded=0;sketch=0;fontColor=#1A1A1A;strokeColor=#D0CEE2;fillColor=#FAD9D5;" vertex="1" parent="1">
          <mxGeometry x="320" y="200" width="30" height="30" as="geometry" />
        </mxCell>
        <mxCell id="8sKl_iNlSNDo3tOQ9S4O-46" value="2" style="ellipse;whiteSpace=wrap;html=1;aspect=fixed;rounded=0;sketch=0;fontColor=#1A1A1A;strokeColor=#D0CEE2;fillColor=#FAD9D5;" vertex="1" parent="1">
          <mxGeometry x="320" y="400" width="30" height="30" as="geometry" />
        </mxCell>
        <mxCell id="8sKl_iNlSNDo3tOQ9S4O-49" value="3" style="ellipse;whiteSpace=wrap;html=1;aspect=fixed;rounded=0;sketch=0;fontColor=#1A1A1A;strokeColor=#D0CEE2;fillColor=#FAD9D5;" vertex="1" parent="1">
          <mxGeometry x="390" y="560" width="30" height="30" as="geometry" />
        </mxCell>
        <mxCell id="8sKl_iNlSNDo3tOQ9S4O-53" value="4" style="ellipse;whiteSpace=wrap;html=1;aspect=fixed;rounded=0;sketch=0;fontColor=#1A1A1A;strokeColor=#D0CEE2;fillColor=#FAD9D5;" vertex="1" parent="1">
          <mxGeometry x="530" y="490" width="30" height="30" as="geometry" />
        </mxCell>
        <mxCell id="8sKl_iNlSNDo3tOQ9S4O-56" value="5" style="ellipse;whiteSpace=wrap;html=1;aspect=fixed;rounded=0;sketch=0;fontColor=#1A1A1A;strokeColor=#D0CEE2;fillColor=#FAD9D5;" vertex="1" parent="1">
          <mxGeometry x="590" y="290" width="30" height="30" as="geometry" />
        </mxCell>
        <mxCell id="8sKl_iNlSNDo3tOQ9S4O-57" value="6" style="ellipse;whiteSpace=wrap;html=1;aspect=fixed;rounded=0;sketch=0;fontColor=#1A1A1A;strokeColor=#D0CEE2;fillColor=#FAD9D5;" vertex="1" parent="1">
          <mxGeometry x="670" y="210" width="30" height="30" as="geometry" />
        </mxCell>
        <mxCell id="8sKl_iNlSNDo3tOQ9S4O-58" value="7" style="ellipse;whiteSpace=wrap;html=1;aspect=fixed;rounded=0;sketch=0;fontColor=#1A1A1A;strokeColor=#D0CEE2;fillColor=#FAD9D5;" vertex="1" parent="1">
          <mxGeometry x="890" y="200" width="30" height="30" as="geometry" />
        </mxCell>
        <mxCell id="8sKl_iNlSNDo3tOQ9S4O-59" value="8" style="ellipse;whiteSpace=wrap;html=1;aspect=fixed;rounded=0;sketch=0;fontColor=#1A1A1A;strokeColor=#D0CEE2;fillColor=#FAD9D5;" vertex="1" parent="1">
          <mxGeometry x="570" y="50" width="30" height="30" as="geometry" />
        </mxCell>
      </root>
    </mxGraphModel>
  </diagram>
</mxfile>
